<?xml version="1.0" encoding="UTF-8" standalone="no"?>
<!DOCTYPE svg PUBLIC "-//W3C//DTD SVG 1.1//EN"
 "http://www.w3.org/Graphics/SVG/1.1/DTD/svg11.dtd">
<!-- Generated by graphviz version 2.43.0 (0)
 -->
<!-- Title: trapezoid_control Pages: 1 -->
<svg width="109pt" height="137pt"
 viewBox="0.00 0.00 109.00 137.00" xmlns="http://www.w3.org/2000/svg" xmlns:xlink="http://www.w3.org/1999/xlink">
<g id="graph0" class="graph" transform="scale(1 1) rotate(0) translate(4 133)">
<title>trapezoid_control</title>
<!-- Node1 -->
<g id="node1" class="node">
<title>Node1</title>
<g id="a_node1"><a xlink:title="台形制御クラス">
<polygon fill="#999999" stroke="#666666" points="101,-19 0,-19 0,0 101,0 101,-19"/>
<text text-anchor="middle" x="50.5" y="-7" font-family="Helvetica,sans-Serif" font-size="10.00">trapezoid_control</text>
</a>
</g>
</g>
<!-- Node2 -->
<g id="node2" class="node">
<title>Node2</title>
<g id="a_node2"><a xlink:href="class_dob.html" target="_top" xlink:title="外乱オブザーバー">
<polygon fill="white" stroke="#666666" points="68.5,-74 32.5,-74 32.5,-55 68.5,-55 68.5,-74"/>
<text text-anchor="middle" x="50.5" y="-62" font-family="Helvetica,sans-Serif" font-size="10.00">Dob</text>
</a>
</g>
</g>
<!-- Node2&#45;&gt;Node1 -->
<g id="edge1" class="edge">
<title>Node2&#45;&gt;Node1</title>
<path fill="none" stroke="#63b8ff" d="M50.5,-44.66C50.5,-35.93 50.5,-25.99 50.5,-19.09"/>
<polygon fill="#63b8ff" stroke="#63b8ff" points="47,-44.75 50.5,-54.75 54,-44.75 47,-44.75"/>
</g>
<!-- Node3 -->
<g id="node3" class="node">
<title>Node3</title>
<g id="a_node3"><a xlink:href="class_p_i_d.html" target="_top" xlink:title="PID制御を行うクラス">
<polygon fill="white" stroke="#666666" points="41,-129 8,-129 8,-110 41,-110 41,-129"/>
<text text-anchor="middle" x="24.5" y="-117" font-family="Helvetica,sans-Serif" font-size="10.00">PID</text>
</a>
</g>
</g>
<!-- Node3&#45;&gt;Node2 -->
<g id="edge2" class="edge">
<title>Node3&#45;&gt;Node2</title>
<path fill="none" stroke="#63b8ff" d="M33.32,-100.53C37.7,-91.6 42.79,-81.22 46.29,-74.09"/>
<polygon fill="#63b8ff" stroke="#63b8ff" points="30.06,-99.23 28.79,-109.75 36.34,-102.31 30.06,-99.23"/>
</g>
<!-- Node4 -->
<g id="node4" class="node">
<title>Node4</title>
<g id="a_node4"><a xlink:href="class_l_p_f.html" target="_top" xlink:title="ローパスフィルタのクラス">
<polygon fill="white" stroke="#666666" points="93.5,-129 59.5,-129 59.5,-110 93.5,-110 93.5,-129"/>
<text text-anchor="middle" x="76.5" y="-117" font-family="Helvetica,sans-Serif" font-size="10.00">LPF</text>
</a>
</g>
</g>
<!-- Node4&#45;&gt;Node2 -->
<g id="edge3" class="edge">
<title>Node4&#45;&gt;Node2</title>
<path fill="none" stroke="#63b8ff" d="M67.68,-100.53C63.3,-91.6 58.21,-81.22 54.71,-74.09"/>
<polygon fill="#63b8ff" stroke="#63b8ff" points="64.66,-102.31 72.21,-109.75 70.94,-99.23 64.66,-102.31"/>
</g>
</g>
</svg>
