<?xml version="1.0" encoding="UTF-8" standalone="no"?>
<!DOCTYPE svg PUBLIC "-//W3C//DTD SVG 1.1//EN"
 "http://www.w3.org/Graphics/SVG/1.1/DTD/svg11.dtd">
<!-- Generated by graphviz version 2.43.0 (0)
 -->
<!-- Title: Dob Pages: 1 -->
<svg width="94pt" height="82pt"
 viewBox="0.00 0.00 93.50 82.00" xmlns="http://www.w3.org/2000/svg" xmlns:xlink="http://www.w3.org/1999/xlink">
<g id="graph0" class="graph" transform="scale(1 1) rotate(0) translate(4 78)">
<title>Dob</title>
<!-- Node1 -->
<g id="node1" class="node">
<title>Node1</title>
<g id="a_node1"><a xlink:title="外乱オブザーバー">
<polygon fill="#999999" stroke="#666666" points="60.5,-19 24.5,-19 24.5,0 60.5,0 60.5,-19"/>
<text text-anchor="middle" x="42.5" y="-7" font-family="Helvetica,sans-Serif" font-size="10.00">Dob</text>
</a>
</g>
</g>
<!-- Node2 -->
<g id="node2" class="node">
<title>Node2</title>
<g id="a_node2"><a xlink:href="class_p_i_d.html" target="_top" xlink:title="PID制御を行うクラス">
<polygon fill="white" stroke="#666666" points="33,-74 0,-74 0,-55 33,-55 33,-74"/>
<text text-anchor="middle" x="16.5" y="-62" font-family="Helvetica,sans-Serif" font-size="10.00">PID</text>
</a>
</g>
</g>
<!-- Node2&#45;&gt;Node1 -->
<g id="edge1" class="edge">
<title>Node2&#45;&gt;Node1</title>
<path fill="none" stroke="#63b8ff" d="M25.32,-45.53C29.7,-36.6 34.79,-26.22 38.29,-19.09"/>
<polygon fill="#63b8ff" stroke="#63b8ff" points="22.06,-44.23 20.79,-54.75 28.34,-47.31 22.06,-44.23"/>
</g>
<!-- Node3 -->
<g id="node3" class="node">
<title>Node3</title>
<g id="a_node3"><a xlink:href="class_l_p_f.html" target="_top" xlink:title="ローパスフィルタのクラス">
<polygon fill="white" stroke="#666666" points="85.5,-74 51.5,-74 51.5,-55 85.5,-55 85.5,-74"/>
<text text-anchor="middle" x="68.5" y="-62" font-family="Helvetica,sans-Serif" font-size="10.00">LPF</text>
</a>
</g>
</g>
<!-- Node3&#45;&gt;Node1 -->
<g id="edge2" class="edge">
<title>Node3&#45;&gt;Node1</title>
<path fill="none" stroke="#63b8ff" d="M59.68,-45.53C55.3,-36.6 50.21,-26.22 46.71,-19.09"/>
<polygon fill="#63b8ff" stroke="#63b8ff" points="56.66,-47.31 64.21,-54.75 62.94,-44.23 56.66,-47.31"/>
</g>
</g>
</svg>
