<?xml version="1.0" encoding="UTF-8" standalone="no"?>
<!DOCTYPE svg PUBLIC "-//W3C//DTD SVG 1.1//EN"
 "http://www.w3.org/Graphics/SVG/1.1/DTD/svg11.dtd">
<!-- Generated by graphviz version 2.43.0 (0)
 -->
<!-- Title: PID Pages: 1 -->
<svg width="109pt" height="137pt"
 viewBox="0.00 0.00 109.00 137.00" xmlns="http://www.w3.org/2000/svg" xmlns:xlink="http://www.w3.org/1999/xlink">
<g id="graph0" class="graph" transform="scale(1 1) rotate(0) translate(4 133)">
<title>PID</title>
<!-- Node1 -->
<g id="node1" class="node">
<title>Node1</title>
<g id="a_node1"><a xlink:title="PID制御を行うクラス">
<polygon fill="#999999" stroke="#666666" points="67,-129 34,-129 34,-110 67,-110 67,-129"/>
<text text-anchor="middle" x="50.5" y="-117" font-family="Helvetica,sans-Serif" font-size="10.00">PID</text>
</a>
</g>
</g>
<!-- Node2 -->
<g id="node2" class="node">
<title>Node2</title>
<g id="a_node2"><a xlink:href="class_dob.html" target="_top" xlink:title="外乱オブザーバー">
<polygon fill="white" stroke="#666666" points="68.5,-74 32.5,-74 32.5,-55 68.5,-55 68.5,-74"/>
<text text-anchor="middle" x="50.5" y="-62" font-family="Helvetica,sans-Serif" font-size="10.00">Dob</text>
</a>
</g>
</g>
<!-- Node1&#45;&gt;Node2 -->
<g id="edge1" class="edge">
<title>Node1&#45;&gt;Node2</title>
<path fill="none" stroke="#63b8ff" d="M50.5,-99.66C50.5,-90.93 50.5,-80.99 50.5,-74.09"/>
<polygon fill="#63b8ff" stroke="#63b8ff" points="47,-99.75 50.5,-109.75 54,-99.75 47,-99.75"/>
</g>
<!-- Node3 -->
<g id="node3" class="node">
<title>Node3</title>
<g id="a_node3"><a xlink:href="classtrapezoid__control.html" target="_top" xlink:title="台形制御クラス">
<polygon fill="white" stroke="#666666" points="101,-19 0,-19 0,0 101,0 101,-19"/>
<text text-anchor="middle" x="50.5" y="-7" font-family="Helvetica,sans-Serif" font-size="10.00">trapezoid_control</text>
</a>
</g>
</g>
<!-- Node2&#45;&gt;Node3 -->
<g id="edge2" class="edge">
<title>Node2&#45;&gt;Node3</title>
<path fill="none" stroke="#63b8ff" d="M50.5,-44.66C50.5,-35.93 50.5,-25.99 50.5,-19.09"/>
<polygon fill="#63b8ff" stroke="#63b8ff" points="47,-44.75 50.5,-54.75 54,-44.75 47,-44.75"/>
</g>
</g>
</svg>
