<?xml version="1.0" encoding="UTF-8" standalone="no"?>
<!DOCTYPE svg PUBLIC "-//W3C//DTD SVG 1.1//EN"
 "http://www.w3.org/Graphics/SVG/1.1/DTD/svg11.dtd">
<!-- Generated by graphviz version 2.43.0 (0)
 -->
<!-- Title: include/roblab/dob.h Pages: 1 -->
<svg width="180pt" height="137pt"
 viewBox="0.00 0.00 180.00 137.00" xmlns="http://www.w3.org/2000/svg" xmlns:xlink="http://www.w3.org/1999/xlink">
<g id="graph0" class="graph" transform="scale(1 1) rotate(0) translate(4 133)">
<title>include/roblab/dob.h</title>
<!-- Node1 -->
<g id="node1" class="node">
<title>Node1</title>
<g id="a_node1"><a xlink:title="外乱オブザーバーのライブラリ">
<polygon fill="#999999" stroke="#666666" points="172,-129 56,-129 56,-110 172,-110 172,-129"/>
<text text-anchor="middle" x="114" y="-117" font-family="Helvetica,sans-Serif" font-size="10.00">include/roblab/dob.h</text>
</a>
</g>
</g>
<!-- Node2 -->
<g id="node2" class="node">
<title>Node2</title>
<g id="a_node2"><a xlink:href="pid_8h.html" target="_top" xlink:title="PIDクラスのヘッダー">
<polygon fill="white" stroke="#666666" points="105.5,-74 64.5,-74 64.5,-55 105.5,-55 105.5,-74"/>
<text text-anchor="middle" x="85" y="-62" font-family="Helvetica,sans-Serif" font-size="10.00">pid.h</text>
</a>
</g>
</g>
<!-- Node1&#45;&gt;Node2 -->
<g id="edge1" class="edge">
<title>Node1&#45;&gt;Node2</title>
<path fill="none" stroke="#63b8ff" d="M109.21,-109.75C105.24,-102.49 99.47,-91.95 94.57,-82.98"/>
<polygon fill="#63b8ff" stroke="#63b8ff" points="97.57,-81.18 89.7,-74.09 91.43,-84.54 97.57,-81.18"/>
</g>
<!-- Node5 -->
<g id="node5" class="node">
<title>Node5</title>
<g id="a_node5"><a xlink:href="lpf_8h.html" target="_top" xlink:title="ローパスフィルタライブラリ">
<polygon fill="white" stroke="#666666" points="162,-74 124,-74 124,-55 162,-55 162,-74"/>
<text text-anchor="middle" x="143" y="-62" font-family="Helvetica,sans-Serif" font-size="10.00">lpf.h</text>
</a>
</g>
</g>
<!-- Node1&#45;&gt;Node5 -->
<g id="edge4" class="edge">
<title>Node1&#45;&gt;Node5</title>
<path fill="none" stroke="#63b8ff" d="M118.79,-109.75C122.76,-102.49 128.53,-91.95 133.43,-82.98"/>
<polygon fill="#63b8ff" stroke="#63b8ff" points="136.57,-84.54 138.3,-74.09 130.43,-81.18 136.57,-84.54"/>
</g>
<!-- Node3 -->
<g id="node3" class="node">
<title>Node3</title>
<g id="a_node3"><a xlink:href="differential_8h.html" target="_top" xlink:title="近似微分器ライブラリ">
<polygon fill="white" stroke="#666666" points="80,-19 0,-19 0,0 80,0 80,-19"/>
<text text-anchor="middle" x="40" y="-7" font-family="Helvetica,sans-Serif" font-size="10.00">differential.h</text>
</a>
</g>
</g>
<!-- Node2&#45;&gt;Node3 -->
<g id="edge2" class="edge">
<title>Node2&#45;&gt;Node3</title>
<path fill="none" stroke="#63b8ff" d="M77.57,-54.75C71.15,-47.18 61.69,-36.05 53.88,-26.84"/>
<polygon fill="#63b8ff" stroke="#63b8ff" points="56.43,-24.45 47.29,-19.09 51.1,-28.98 56.43,-24.45"/>
</g>
<!-- Node4 -->
<g id="node4" class="node">
<title>Node4</title>
<g id="a_node4"><a xlink:href="integral_8h.html" target="_top" xlink:title="積分器クラスのヘッダー">
<polygon fill="white" stroke="#666666" points="161.5,-19 98.5,-19 98.5,0 161.5,0 161.5,-19"/>
<text text-anchor="middle" x="130" y="-7" font-family="Helvetica,sans-Serif" font-size="10.00">integral.h</text>
</a>
</g>
</g>
<!-- Node2&#45;&gt;Node4 -->
<g id="edge3" class="edge">
<title>Node2&#45;&gt;Node4</title>
<path fill="none" stroke="#63b8ff" d="M92.43,-54.75C98.85,-47.18 108.31,-36.05 116.12,-26.84"/>
<polygon fill="#63b8ff" stroke="#63b8ff" points="118.9,-28.98 122.71,-19.09 113.57,-24.45 118.9,-28.98"/>
</g>
</g>
</svg>
