<?xml version="1.0" encoding="UTF-8" standalone="no"?>
<!DOCTYPE svg PUBLIC "-//W3C//DTD SVG 1.1//EN"
 "http://www.w3.org/Graphics/SVG/1.1/DTD/svg11.dtd">
<!-- Generated by graphviz version 2.43.0 (0)
 -->
<!-- Title: クラス階層図 Pages: 1 -->
<svg width="251pt" height="64pt"
 viewBox="0.00 0.00 251.00 64.00" xmlns="http://www.w3.org/2000/svg" xmlns:xlink="http://www.w3.org/1999/xlink">
<g id="graph0" class="graph" transform="scale(1 1) rotate(0) translate(4 60)">
<title>クラス階層図</title>
<!-- Node0 -->
<g id="node1" class="node">
<title>Node0</title>
<g id="a_node1"><a xlink:href="class_l_p_f.html" target="_top" xlink:title="ローパスフィルタのクラス">
<polygon fill="white" stroke="#666666" points="34,-56 0,-56 0,-37 34,-37 34,-56"/>
<text text-anchor="middle" x="17" y="-44" font-family="Helvetica,sans-Serif" font-size="10.00">LPF</text>
</a>
</g>
</g>
<!-- Node1 -->
<g id="node2" class="node">
<title>Node1</title>
<g id="a_node2"><a xlink:href="class_dob.html" target="_top" xlink:title="外乱オブザーバー">
<polygon fill="white" stroke="#666666" points="106,-37 70,-37 70,-18 106,-18 106,-37"/>
<text text-anchor="middle" x="88" y="-25" font-family="Helvetica,sans-Serif" font-size="10.00">Dob</text>
</a>
</g>
</g>
<!-- Node0&#45;&gt;Node1 -->
<g id="edge1" class="edge">
<title>Node0&#45;&gt;Node1</title>
<path fill="none" stroke="#63b8ff" d="M43.66,-39.43C52.32,-37.05 61.77,-34.45 69.63,-32.28"/>
<polygon fill="#63b8ff" stroke="#63b8ff" points="42.72,-36.06 34,-42.09 44.57,-42.81 42.72,-36.06"/>
</g>
<!-- Node2 -->
<g id="node3" class="node">
<title>Node2</title>
<g id="a_node3"><a xlink:href="classtrapezoid__control.html" target="_top" xlink:title="台形制御クラス">
<polygon fill="white" stroke="#666666" points="243,-37 142,-37 142,-18 243,-18 243,-37"/>
<text text-anchor="middle" x="192.5" y="-25" font-family="Helvetica,sans-Serif" font-size="10.00">trapezoid_control</text>
</a>
</g>
</g>
<!-- Node1&#45;&gt;Node2 -->
<g id="edge2" class="edge">
<title>Node1&#45;&gt;Node2</title>
<path fill="none" stroke="#63b8ff" d="M116.65,-27.5C124.42,-27.5 133.11,-27.5 141.75,-27.5"/>
<polygon fill="#63b8ff" stroke="#63b8ff" points="116.39,-24 106.39,-27.5 116.39,-31 116.39,-24"/>
</g>
<!-- Node3 -->
<g id="node4" class="node">
<title>Node3</title>
<g id="a_node4"><a xlink:href="class_p_i_d.html" target="_top" xlink:title="PID制御を行うクラス">
<polygon fill="white" stroke="#666666" points="33.5,-19 0.5,-19 0.5,0 33.5,0 33.5,-19"/>
<text text-anchor="middle" x="17" y="-7" font-family="Helvetica,sans-Serif" font-size="10.00">PID</text>
</a>
</g>
</g>
<!-- Node3&#45;&gt;Node1 -->
<g id="edge3" class="edge">
<title>Node3&#45;&gt;Node1</title>
<path fill="none" stroke="#63b8ff" d="M43.48,-16.15C52.3,-18.45 61.97,-20.97 69.95,-23.05"/>
<polygon fill="#63b8ff" stroke="#63b8ff" points="44.22,-12.72 33.66,-13.58 42.45,-19.5 44.22,-12.72"/>
</g>
</g>
</svg>
