<?xml version="1.0" encoding="UTF-8" standalone="no"?>
<!DOCTYPE svg PUBLIC "-//W3C//DTD SVG 1.1//EN"
 "http://www.w3.org/Graphics/SVG/1.1/DTD/svg11.dtd">
<!-- Generated by graphviz version 2.43.0 (0)
 -->
<!-- Title: include/roblab/lpf.h Pages: 1 -->
<svg width="142pt" height="148pt"
 viewBox="0.00 0.00 142.00 148.00" xmlns="http://www.w3.org/2000/svg" xmlns:xlink="http://www.w3.org/1999/xlink">
<g id="graph0" class="graph" transform="scale(1 1) rotate(0) translate(4 144)">
<title>include/roblab/lpf.h</title>
<!-- Node1 -->
<g id="node1" class="node">
<title>Node1</title>
<g id="a_node1"><a xlink:title="ローパスフィルタライブラリ">
<polygon fill="#999999" stroke="#666666" points="122,-140 12,-140 12,-121 122,-121 122,-140"/>
<text text-anchor="middle" x="67" y="-128" font-family="Helvetica,sans-Serif" font-size="10.00">include/roblab/lpf.h</text>
</a>
</g>
</g>
<!-- Node2 -->
<g id="node2" class="node">
<title>Node2</title>
<g id="a_node2"><a xlink:href="dob_8h.html" target="_top" xlink:title="外乱オブザーバーのライブラリ">
<polygon fill="white" stroke="#666666" points="125,-85 9,-85 9,-66 125,-66 125,-85"/>
<text text-anchor="middle" x="67" y="-73" font-family="Helvetica,sans-Serif" font-size="10.00">include/roblab/dob.h</text>
</a>
</g>
</g>
<!-- Node1&#45;&gt;Node2 -->
<g id="edge1" class="edge">
<title>Node1&#45;&gt;Node2</title>
<path fill="none" stroke="#63b8ff" d="M67,-110.66C67,-101.93 67,-91.99 67,-85.09"/>
<polygon fill="#63b8ff" stroke="#63b8ff" points="63.5,-110.75 67,-120.75 70.5,-110.75 63.5,-110.75"/>
</g>
<!-- Node3 -->
<g id="node3" class="node">
<title>Node3</title>
<g id="a_node3"><a xlink:href="trapezoid__control_8h.html" target="_top" xlink:title="台形制御ライブラリ">
<polygon fill="white" stroke="#666666" points="134,-30 0,-30 0,0 134,0 134,-30"/>
<text text-anchor="start" x="8" y="-18" font-family="Helvetica,sans-Serif" font-size="10.00">include/roblab/trapezoid</text>
<text text-anchor="middle" x="67" y="-7" font-family="Helvetica,sans-Serif" font-size="10.00">_control.h</text>
</a>
</g>
</g>
<!-- Node2&#45;&gt;Node3 -->
<g id="edge2" class="edge">
<title>Node2&#45;&gt;Node3</title>
<path fill="none" stroke="#63b8ff" d="M67,-55.65C67,-47.36 67,-37.78 67,-30.11"/>
<polygon fill="#63b8ff" stroke="#63b8ff" points="63.5,-55.87 67,-65.87 70.5,-55.87 63.5,-55.87"/>
</g>
</g>
</svg>
