<?xml version="1.0" encoding="UTF-8" standalone="no"?>
<!DOCTYPE svg PUBLIC "-//W3C//DTD SVG 1.1//EN"
 "http://www.w3.org/Graphics/SVG/1.1/DTD/svg11.dtd">
<!-- Generated by graphviz version 2.43.0 (0)
 -->
<!-- Title: include/roblab/pid.h Pages: 1 -->
<svg width="170pt" height="82pt"
 viewBox="0.00 0.00 169.50 82.00" xmlns="http://www.w3.org/2000/svg" xmlns:xlink="http://www.w3.org/1999/xlink">
<g id="graph0" class="graph" transform="scale(1 1) rotate(0) translate(4 78)">
<title>include/roblab/pid.h</title>
<!-- Node1 -->
<g id="node1" class="node">
<title>Node1</title>
<g id="a_node1"><a xlink:title="PIDクラスのヘッダー">
<polygon fill="#999999" stroke="#666666" points="141.5,-74 28.5,-74 28.5,-55 141.5,-55 141.5,-74"/>
<text text-anchor="middle" x="85" y="-62" font-family="Helvetica,sans-Serif" font-size="10.00">include/roblab/pid.h</text>
</a>
</g>
</g>
<!-- Node2 -->
<g id="node2" class="node">
<title>Node2</title>
<g id="a_node2"><a xlink:href="differential_8h.html" target="_top" xlink:title="近似微分器ライブラリ">
<polygon fill="white" stroke="#666666" points="80,-19 0,-19 0,0 80,0 80,-19"/>
<text text-anchor="middle" x="40" y="-7" font-family="Helvetica,sans-Serif" font-size="10.00">differential.h</text>
</a>
</g>
</g>
<!-- Node1&#45;&gt;Node2 -->
<g id="edge1" class="edge">
<title>Node1&#45;&gt;Node2</title>
<path fill="none" stroke="#63b8ff" d="M77.57,-54.75C71.15,-47.18 61.69,-36.05 53.88,-26.84"/>
<polygon fill="#63b8ff" stroke="#63b8ff" points="56.43,-24.45 47.29,-19.09 51.1,-28.98 56.43,-24.45"/>
</g>
<!-- Node3 -->
<g id="node3" class="node">
<title>Node3</title>
<g id="a_node3"><a xlink:href="integral_8h.html" target="_top" xlink:title="積分器クラスのヘッダー">
<polygon fill="white" stroke="#666666" points="161.5,-19 98.5,-19 98.5,0 161.5,0 161.5,-19"/>
<text text-anchor="middle" x="130" y="-7" font-family="Helvetica,sans-Serif" font-size="10.00">integral.h</text>
</a>
</g>
</g>
<!-- Node1&#45;&gt;Node3 -->
<g id="edge2" class="edge">
<title>Node1&#45;&gt;Node3</title>
<path fill="none" stroke="#63b8ff" d="M92.43,-54.75C98.85,-47.18 108.31,-36.05 116.12,-26.84"/>
<polygon fill="#63b8ff" stroke="#63b8ff" points="118.9,-28.98 122.71,-19.09 113.57,-24.45 118.9,-28.98"/>
</g>
</g>
</svg>
