<?xml version="1.0" encoding="UTF-8" standalone="no"?>
<!DOCTYPE svg PUBLIC "-//W3C//DTD SVG 1.1//EN"
 "http://www.w3.org/Graphics/SVG/1.1/DTD/svg11.dtd">
<!-- Generated by graphviz version 2.43.0 (0)
 -->
<!-- Title: include/roblab/pid.h Pages: 1 -->
<svg width="176pt" height="148pt"
 viewBox="0.00 0.00 176.00 148.00" xmlns="http://www.w3.org/2000/svg" xmlns:xlink="http://www.w3.org/1999/xlink">
<g id="graph0" class="graph" transform="scale(1 1) rotate(0) translate(4 144)">
<title>include/roblab/pid.h</title>
<!-- Node1 -->
<g id="node1" class="node">
<title>Node1</title>
<g id="a_node1"><a xlink:title="PIDクラスのヘッダー">
<polygon fill="#999999" stroke="#666666" points="157.5,-140 44.5,-140 44.5,-121 157.5,-121 157.5,-140"/>
<text text-anchor="middle" x="101" y="-128" font-family="Helvetica,sans-Serif" font-size="10.00">include/roblab/pid.h</text>
</a>
</g>
</g>
<!-- Node2 -->
<g id="node2" class="node">
<title>Node2</title>
<g id="a_node2"><a xlink:href="dob_8h.html" target="_top" xlink:title="外乱オブザーバーのライブラリ">
<polygon fill="white" stroke="#666666" points="116,-85 0,-85 0,-66 116,-66 116,-85"/>
<text text-anchor="middle" x="58" y="-73" font-family="Helvetica,sans-Serif" font-size="10.00">include/roblab/dob.h</text>
</a>
</g>
</g>
<!-- Node1&#45;&gt;Node2 -->
<g id="edge1" class="edge">
<title>Node1&#45;&gt;Node2</title>
<path fill="none" stroke="#63b8ff" d="M87.58,-112.96C80.09,-103.72 71.06,-92.6 64.97,-85.09"/>
<polygon fill="#63b8ff" stroke="#63b8ff" points="84.88,-115.19 93.9,-120.75 90.32,-110.78 84.88,-115.19"/>
</g>
<!-- Node3 -->
<g id="node3" class="node">
<title>Node3</title>
<g id="a_node3"><a xlink:href="trapezoid__control_8h.html" target="_top" xlink:title="台形制御ライブラリ">
<polygon fill="white" stroke="#666666" points="168,-30 34,-30 34,0 168,0 168,-30"/>
<text text-anchor="start" x="42" y="-18" font-family="Helvetica,sans-Serif" font-size="10.00">include/roblab/trapezoid</text>
<text text-anchor="middle" x="101" y="-7" font-family="Helvetica,sans-Serif" font-size="10.00">_control.h</text>
</a>
</g>
</g>
<!-- Node1&#45;&gt;Node3 -->
<g id="edge3" class="edge">
<title>Node1&#45;&gt;Node3</title>
<path fill="none" stroke="#63b8ff" d="M112.91,-112.22C117.67,-104.3 122.59,-94.56 125,-85 129.91,-65.57 119.61,-43.84 111.02,-30.05"/>
<polygon fill="#63b8ff" stroke="#63b8ff" points="109.83,-110.54 107.37,-120.84 115.72,-114.32 109.83,-110.54"/>
</g>
<!-- Node2&#45;&gt;Node3 -->
<g id="edge2" class="edge">
<title>Node2&#45;&gt;Node3</title>
<path fill="none" stroke="#63b8ff" d="M70.42,-57.61C76.82,-48.89 84.54,-38.39 90.63,-30.11"/>
<polygon fill="#63b8ff" stroke="#63b8ff" points="67.45,-55.74 64.34,-65.87 73.09,-59.88 67.45,-55.74"/>
</g>
</g>
</svg>
